<svg width="21" height="18" viewBox="0 0 21 18" fill="none" xmlns="http://www.w3.org/2000/svg">
<path d="M1.19194 16.4724C1.19194 16.4724 -0.318855 13.5988 1.59688 12.5916C2.24823 12.2492 2.97019 11.8085 3.69017 11.271C4.934 11.4973 6.41088 11.2833 7.84768 10.5279L8.08715 10.402L5.6072 9.61511C5.88706 9.33349 6.14727 9.03774 6.40244 8.73242L9.19384 9.60007C9.52712 9.32704 9.81655 9.04038 10.0672 8.74967L7.09034 7.80835C7.29209 7.49443 7.48426 7.18555 7.66132 6.84793L10.6966 7.80743C10.8782 7.4552 10.9923 7.11403 11.0726 6.77838L8.1058 5.85621C8.2249 5.52462 8.33392 5.17387 8.41876 4.82361L11.1517 5.67309C11.1105 5.31572 11.0406 4.97346 10.8744 4.65737C10.4464 3.84318 9.6326 3.34182 8.64532 3.11507C8.64789 3.00368 8.66004 2.88726 8.65757 2.76629L9.73534 1.25823C11.0229 1.73057 13.0462 1.48601 15.1327 0.547944L15.1957 0.551501L15.8662 0.198982C15.8662 0.198982 17.3277 0.653253 19.0903 4.00579C19.3773 4.55177 19.6291 5.03071 19.8074 5.46273L16.9721 6.95338C15.9184 7.50734 14.785 8.42113 13.6798 9.29562C12.6804 10.1389 11.6327 10.9832 10.7706 11.4364L1.19194 16.4724ZM20.3986 8.81979C20.3986 8.81979 20.9542 8.5277 20.2152 6.47096L17.4757 7.91125C15.5599 8.91844 13.1899 11.3871 11.2742 12.3943L1.96374 17.2893C2.59157 17.6928 3.40604 17.7536 4.11486 17.3809L20.3986 8.81979Z" fill="white"/>
</svg>
