<svg xmlns="http://www.w3.org/2000/svg" width="253.667" height="50.432" viewBox="0 0 253.667 50.432">
  <g id="logo" transform="translate(-56.423 -41.225)">
    <g id="Group_244" data-name="Group 244" transform="translate(114.753 57.779)">
      <g id="Group_243" data-name="Group 243" transform="translate(0 0)">
        <g id="Group_63" data-name="Group 63">
          <path id="Vector" d="M29.1,19.913c-1.057,0-1.929.023-2.8,0a.689.689,0,0,1-.512-.377c-.21-.773-.34-1.574-.531-2.362s-.4-1.5-.6-2.259c-.266-.964-.526-1.928-.806-2.888-.238-.82-.526-1.626-.75-2.445s-.4-1.737-.634-2.594c-.056-.214-.289-.382-.438-.573a2.478,2.478,0,0,0-.531.526c-.2.391-.326.824-.508,1.23-.419.932-.885,1.812-1.276,2.739s-.661,1.863-1.053,2.795c-.508,1.174-1.09,2.329-1.63,3.484a8.849,8.849,0,0,1-.675,1.491c-.429.6-.9,1.36-1.514,1.56-.424.135-1.332-.419-1.649-.932a22.529,22.529,0,0,1-1.439-3.135c-.405-.932-.843-1.812-1.244-2.725S9.8,11.729,9.438,10.872,8.748,9.191,8.38,8.361c-.293-.657-.624-1.3-1-2.073a4.294,4.294,0,0,0-.675.932c-.238.708-.382,1.449-.582,2.171-.266.932-.545,1.863-.82,2.795,0,.075-.061.144-.075.219-.186.955-.326,1.924-.568,2.865-.2.764-.531,1.491-.773,2.245-.2.624-.331,1.272-.55,1.891-.075.21-.317.5-.5.512-.866.056-1.742.023-2.842.023.3-.969.559-1.793.82-2.618.061-.191.163-.368.219-.564q.443-1.551.866-3.1c.047-.172.042-.359.089-.531.261-.932.531-1.891.792-2.837.158-.559.312-1.118.466-1.677.21-.787.405-1.579.615-2.362s.466-1.64.685-2.459a2.855,2.855,0,0,0,.219-.8A5.11,5.11,0,0,1,5.781.331c.266-.5,1.724-.359,2.185.126A8.689,8.689,0,0,1,9.4,3.252q.5,1.15,1.011,2.3c.27.606.564,1.2.829,1.8.377.857.745,1.723,1.109,2.59.419,1,.811,2.017,1.253,3,.312.694.685,1.355,1.113,2.194.326-.573.573-.932.759-1.341.438-.932.857-1.9,1.272-2.851.359-.834.685-1.681,1.048-2.515.764-1.742,1.528-3.484,2.329-5.212A27.6,27.6,0,0,1,21.517.48a1.494,1.494,0,0,1,1.789-.3,2.759,2.759,0,0,1,1.029,1.7A14.146,14.146,0,0,0,25.1,4.36c.023.075.07.14.088.214.182.885.321,1.784.55,2.66s.54,1.714.811,2.571c.168.55.345,1.1.466,1.654.2.852.335,1.723.568,2.566s.578,1.649.8,2.492C28.635,17.575,28.831,18.669,29.1,19.913Z" transform="translate(25.705)" fill="#fafafa"/>
          <path id="Vector-2" data-name="Vector" d="M23.181,19.786a28.412,28.412,0,0,1-4.3-.07c-.6-.093-1.123-.885-1.621-1.4-1.127-1.22-2.2-2.487-3.335-3.7a1.435,1.435,0,0,0-.932-.373q-3.07-.042-6.13,0c-.606,0-.792-.182-.783-.8.033-1.9,0-1.863,1.863-1.863,2.148,0,4.29.037,6.438,0a3.464,3.464,0,0,0,3.009-1.365,5.37,5.37,0,0,0,.778-1.9,9.668,9.668,0,0,0,.023-2.012,3.19,3.19,0,0,0-2.273-2.795,11.78,11.78,0,0,0-3.978-.382c-2.609,0-5.222.042-7.835.042-.671,0-.894.27-.894.932V18.841c0,1.039,0,1.034-1.025,1.011-.494,0-.983-.028-1.472,0S-.009,19.67,0,19.134V1.067C0,.023,0,.009,1.02.009c4.575,0,9.154-.037,13.728.037a12.985,12.985,0,0,1,2.674.708,4.477,4.477,0,0,1,2.693,2.031A8.332,8.332,0,0,1,21.257,5.58a11.881,11.881,0,0,1,.07,2.548,6.227,6.227,0,0,1-1.891,4.444,5.818,5.818,0,0,1-1.332.815c-.6.34-.62.559-.135,1.057C19.677,16.181,21.364,17.9,23.181,19.786Z" transform="translate(128.241 0.103)" fill="#fafafa"/>
          <path id="Vector-3" data-name="Vector" d="M12.2,19.865a21.045,21.045,0,0,1-2.711,0A10.763,10.763,0,0,1,5.334,18.77a9.433,9.433,0,0,1-3.2-2.641A12.45,12.45,0,0,1,.885,13.684a11.8,11.8,0,0,1-.764-2.455A6.651,6.651,0,0,1,.093,8.858,20.185,20.185,0,0,1,1.188,5.174a7.551,7.551,0,0,1,3.5-3.694A13.837,13.837,0,0,1,7.248.488C10.043-.383,12.885.2,15.7.074a5.833,5.833,0,0,1,1.682.438,8.935,8.935,0,0,1,5.124,3.372,13.726,13.726,0,0,1,1.146,2.469c.852,1.919.331,3.941.4,5.92a3.023,3.023,0,0,1-.466,1.4c-.783,1.467-1.346,3.121-2.828,4.076-1.2.778-2.329,1.681-3.908,1.77s-3.1.345-4.658.531Zm.037-16.824v.154H11.3c-2.595-.037-4.989.419-6.624,2.725A5.1,5.1,0,0,0,3.591,8.491a7.4,7.4,0,0,1-.224.866,2.156,2.156,0,0,0-.1.894c.224.838.55,1.649.8,2.483A5.388,5.388,0,0,0,6.247,15.5a7.114,7.114,0,0,0,3.727,1.174,22.27,22.27,0,0,0,4.561,0,7.193,7.193,0,0,0,2.515-.536,5.092,5.092,0,0,0,2.436-1.8,7.642,7.642,0,0,0,1.337-2.6A7.644,7.644,0,0,0,20.1,6.464a5.856,5.856,0,0,0-3.908-2.906c-1.309-.261-2.641-.349-3.96-.517Z" transform="translate(55.673 0.057)" fill="#fafafa"/>
          <path id="Vector-4" data-name="Vector" d="M20.208.63c.042.3.084.606.13.908.177,1.123.168,1.649-1.057,1.626q-5.967-.1-11.935-.033A9.066,9.066,0,0,0,4.64,3.6c-1.2.4-1.6,2.185-1.1,3.316A2.412,2.412,0,0,0,6.168,8.376c3.177,0,6.363-.1,9.536.037a6.6,6.6,0,0,1,4.561,1.952,3.68,3.68,0,0,1,.643,1.537,6.548,6.548,0,0,1,.405,2.077,6.3,6.3,0,0,1-2.842,5.263.466.466,0,0,1-.14.061,15.337,15.337,0,0,1-2.707.5c-4.807.051-9.615,0-14.441.042-.6,0-.773-.224-.731-.773.056-.745-.2-1.747.186-2.157s1.4-.2,2.129-.21c3.983,0,7.966.065,11.944-.023,1.183-.028,2.516-.191,3.163-1.49.862-1.714.135-3.782-1.793-4.043a44.929,44.929,0,0,0-5.492-.112,48.615,48.615,0,0,1-6.056-.084A4.826,4.826,0,0,1,.867,8.562,6.013,6.013,0,0,1,.014,5.041,4.471,4.471,0,0,1,1.677,1.683,7.24,7.24,0,0,1,6.457,0c4.193.028,8.385,0,12.578,0A5.456,5.456,0,0,1,20.39.374Z" transform="translate(153.35 0.088)" fill="#fafafa"/>
          <path id="Vector-5" data-name="Vector" d="M3.447,3.852c.047.573.107,1.141.13,1.709a19.416,19.416,0,0,1,0,2.017c-.042.629.205.783.806.778,3.932-.023,7.859,0,11.79,0h.894V11H4.272c-.466,0-.662.191-.662.629v4.42c0,.531.242.689.769.685,4.109,0,8.222,0,12.331-.033.727,0,1.057.163.974.932a11.461,11.461,0,0,0,.033,1.546c0,.438-.154.647-.638.647H.713c-.554,0-.7-.228-.694-.741Q.07,13.382.07,7.69.07,4.281,0,.871C0,.242.177,0,.829,0h15.9c.759,0,1.025.251.932.992a5.9,5.9,0,0,0,0,1.314c.075.694-.2.89-.88.88-3.126-.047-6.256-.051-9.382-.065-1.057,0-2.124-.042-3.177.042-.345.028-.666.4-1,.61Z" transform="translate(177.621 0.113)" fill="#fafafa"/>
          <path id="Vector-6" data-name="Vector" d="M0,19.852V.894C0,.154.242,0,.932,0,6.177.023,11.422,0,16.672,0c.992,0,.992,0,1,1.039,0,2.124,0,2.105-2.068,2.091H5.143a2.432,2.432,0,0,0-1.067.079c-.335.177-.764.55-.787.866-.093,1.206,0,2.427-.047,3.638,0,.606.363.666.806.671h12.48a3.9,3.9,0,0,1,.587.033v2.618c-.4,0-.778.051-1.155.051H4.314a.932.932,0,0,0-1.067,1.02c-.023,1.188,0,2.376,0,3.563a.992.992,0,0,0,1.118,1.062H16.682c.964,0,.974,0,.983,1,0,2.133,0,2.119-2.148,2.115H1.076Z" transform="translate(107.302 0.066)" fill="#fafafa"/>
          <path id="Vector-7" data-name="Vector" d="M12.892,15.483c.564-.932,1.057-1.714,1.542-2.515.764-1.262,1.533-2.52,2.273-3.8.825-1.425,1.6-2.874,2.436-4.29.932-1.556,1.863-3.088,2.8-4.611a.718.718,0,0,1,.522-.247C23.337,0,24.217,0,25.093.024a.526.526,0,0,1,.41.233.671.671,0,0,1-.13.466c-.7,1.132-1.43,2.25-2.134,3.382s-1.318,2.18-1.98,3.26c-.41.68-.829,1.346-1.234,2.031-.694,1.174-1.37,2.366-2.068,3.535-.862,1.439-1.756,2.865-2.618,4.3a14,14,0,0,1-1.146,2c-1.113,1.286-1.994,1.355-2.991-.14-1.188-1.775-2.2-3.666-3.3-5.5-.8-1.327-1.635-2.641-2.45-3.964Q4.368,7.867,3.305,6.093C2.6,4.914,1.908,3.731,1.2,2.553.818,1.924.422,1.309.068.666A1.8,1.8,0,0,1,.007.014c1.118,0,2.171-.047,3.219.028a1.276,1.276,0,0,1,.829.6c1,1.686,1.919,3.414,2.916,5.1s2.138,3.4,3.154,5.124c.722,1.225,1.342,2.511,2.026,3.759a7.192,7.192,0,0,0,.741.862Z" transform="translate(79.325 0.079)" fill="#fafafa"/>
          <path id="Vector-8" data-name="Vector" d="M3.41,0V15.538c0,1.16,0,1.16,1.132,1.155H15.624c.233,0,.466.028.7.028.419,0,.6.182.578.615a11.076,11.076,0,0,0,0,1.621c.084.769-.289.932-.932.932-.75-.033-1.5,0-2.25,0H1.4a3.205,3.205,0,0,1-1-.065.713.713,0,0,1-.4-.545c0-.871.158-1.737.158-2.608,0-5.217.037-10.434,0-15.65,0-.773.21-1.071,1-1C1.868.051,2.59,0,3.41,0Z" transform="translate(0 0.075)" fill="#fafafa"/>
          <path id="Vector-9" data-name="Vector" d="M.007,10.007V.873c0-.685.21-.932.89-.862a8.578,8.578,0,0,0,1.547,0c.624-.051.783.214.778.806V19.011c0,.638-.21.9-.843.866-.382-.023-.773,0-1.16,0-1.332,0-1.216.107-1.216-1.2V10.007Z" transform="translate(19.763 0.05)" fill="#fafafa"/>
        </g>
      </g>
    </g>
    <g id="Group_247" data-name="Group 247" transform="translate(56.423 41.225)">
      <g id="Frame" transform="translate(0 0)">
        <path id="Vector-10" data-name="Vector" d="M5.013,12.808c.739.469,1.571.994,2.4,1.521a.52.52,0,0,0,.653-.058,1.369,1.369,0,0,1,1.949.064,1.448,1.448,0,0,0,.368.208.884.884,0,0,1,.578,1.01,2.556,2.556,0,0,0,0,.565,1.362,1.362,0,0,1-.847,1.647c-.167.066-.282.346-.353.55a1.714,1.714,0,0,0-.035.561c0,2.5.014,4.992-.012,7.488a1.342,1.342,0,0,0,.776,1.343c1.167.659,1.071.31,1.034,1.78a1.8,1.8,0,0,0,.741,1.638c.5.382.939.858,1.444,1.24a1.471,1.471,0,0,1,.616,1.317c-.02,4.992-.011,9.985-.011,14.977V50c0,.239-.071.414-.353.424-.3.01-.428-.148-.438-.424-.008-.235-.011-.471-.011-.707,0-4.968-.013-9.937.014-14.905a1.914,1.914,0,0,0-.791-1.756,16.455,16.455,0,0,1-1.44-1.245c-.256-.235-.529-.35-.809-.1-.649.57-1.221.392-1.884-.028-1.117-.707-.972-.5-.992-1.7a3.106,3.106,0,0,0,0-.353,1.114,1.114,0,0,1,.749-1.338.917.917,0,0,0,.576-1.009q-.03-3.921,0-7.841a.963.963,0,0,0-.583-1.009c-.318-.148-.612-.348-.917-.523a.732.732,0,0,1-.4-.692c0-.377-.008-.753-.006-1.131a.916.916,0,0,0-.471-.876Q5.408,14.1,4.3,13.353a.672.672,0,0,0-.9.016,1.212,1.212,0,0,1-1.7.006,8.865,8.865,0,0,0-1.216-.707A.8.8,0,0,1,0,11.884c.019-.683.016-1.366,0-2.05A.743.743,0,0,1,.443,9.1c.578-.315,1.143-.652,1.709-.985a.588.588,0,0,1,.655-.076c.828.486,1.662.964,2.581,1.5a.733.733,0,0,0,.217-.061c.847-.41,1.683-.835,2.533-1.238.358-.17.588-.405.507-.818A1.686,1.686,0,0,1,9.869,5.311a.725.725,0,0,0,.477-.848,1.635,1.635,0,0,1,0-.424,1.047,1.047,0,0,0-.717-1.277c-.332-.125-.412-.392-.423-.734C9.174.765,9.248.639,10.384.1a.637.637,0,0,1,.722.026.528.528,0,0,0,.061.036c1.07.571,1.22.885,1.043,2.074a.716.716,0,0,1-.464.572A.879.879,0,0,0,11.2,3.83a1.758,1.758,0,0,1,0,.212c.017,1.288-.141,1.046.917,1.647a.882.882,0,0,1,.535.9,12.343,12.343,0,0,0,0,1.272.755.755,0,0,1-.472.787,1.763,1.763,0,0,0-.367.212,1.521,1.521,0,0,1-2.193.071A.763.763,0,0,0,8.7,8.9c-1.006.507-2.016,1.01-3.039,1.484a.824.824,0,0,0-.528.881C5.139,11.714,5.065,12.172,5.013,12.808Z" transform="translate(5.342 0)" fill="#fafafa"/>
        <path id="Vector-11" data-name="Vector" d="M.746,23.317A6.3,6.3,0,0,1,.574,20.87a.468.468,0,0,1,.19-.348,5.007,5.007,0,0,1,2.213-1.013c0-.744.033-1.493-.022-2.236a.844.844,0,0,0-.476-.534,1.057,1.057,0,0,1-.645-1.186c.059-1.885-.258-1.339,1.345-2.333.419-.259.788-.386,1.213-.044a.71.71,0,0,0,.852,0c1.307-.694,2.615-1.385,3.932-2.059a.879.879,0,0,0,.553-.881q-.022-2.686,0-5.366a.937.937,0,0,0-.509-.919c-1.029-.592-.943-.349-.943-1.71,0-1.424-.08-1.131,1-1.749,1.181-.677.716-.621,1.94-.03a1.589,1.589,0,0,1,1.018,1.76c-.09,1.366.162,1.1-1.064,1.782A1.164,1.164,0,0,0,10.5,5.188c.026,1.767-.013,3.534.023,5.3a1.168,1.168,0,0,1-.734,1.268c-1.145.541-2.241,1.187-3.375,1.755a.91.91,0,0,0-.6.99c.037.467,0,.941.011,1.414a.642.642,0,0,1-.359.631c-.389.218-.766.46-1.159.67A.768.768,0,0,0,3.849,18c.024.469.018.941,0,1.414s-.007.888.489,1.142a.552.552,0,0,1,.2.414,6.767,6.767,0,0,1-.027,1.758c-.141.6-.87.64-1.3.985a.982.982,0,0,1-1.435-.04,1.86,1.86,0,0,0-1,1.7C.811,30.6.8,35.827.8,41.053c0,.212,0,.424,0,.636,0,.283-.06.521-.423.511-.333-.009-.363-.234-.364-.487v-.565c0-5.32.008-10.64-.01-15.959a1.923,1.923,0,0,1,.6-1.645.934.934,0,0,0,.151-.226Z" transform="translate(24.818 8.225)" fill="#fafafa"/>
        <path id="Vector-12" data-name="Vector" d="M1.118,33.137c0-4.524-.011-9.047.013-13.565,0-.653-.1-1.156-.768-1.4a.556.556,0,0,1-.353-.626V17.4c-.041-1.891-.038-1.886,1.633-2.725a.67.67,0,0,1,.725.011c.3.184.612.349.912.535a.649.649,0,0,0,.782,0Q6.167,13.8,8.285,12.4a.713.713,0,0,0,.325-.658q-.008-2.262,0-4.524a.726.726,0,0,0-.347-.649c-1.319-.9-2.641-1.8-3.951-2.715a.575.575,0,0,0-.772.043c-.629.559-1.19.39-1.823-.024C.571,3.127.788,3.482.7,2.13A1.577,1.577,0,0,1,1.714.376c.968-.467.944-.539,1.876.017,1.115.665,1.01.385.988,1.754A1.434,1.434,0,0,0,5.3,3.54c1.188.758,2.328,1.595,3.5,2.372A1.172,1.172,0,0,1,9.416,7q-.033,2.507,0,5.018a1.091,1.091,0,0,1-.564,1.039c-1.423.919-2.814,1.882-4.24,2.792a1.139,1.139,0,0,0-.627,1.214c.023.162-.007.33,0,.495a.61.61,0,0,1-.37.621c-.392.212-.764.465-1.164.662a.893.893,0,0,0-.552.962c.017.212,0,.424,0,.636V46.655c0,.259,0,.518-.015.778a.329.329,0,0,1-.359.347c-.258.008-.4-.106-.409-.368-.007-.212-.01-.424-.01-.636Z" transform="translate(20.877 2.646)" fill="#fafafa"/>
        <path id="Vector-13" data-name="Vector" d="M14.272,28.98c0-1.908-.015-3.817.01-5.721a1.72,1.72,0,0,0-.554-1.371c-1.27-1.227-2.487-2.5-3.753-3.731a1.561,1.561,0,0,1-.506-1.243c.02-2.637,0-5.274.02-7.911a1.344,1.344,0,0,0-.624-1.235C7.164,6.552,5.487,5.3,3.8,4.068c-.454-.331-.635-.365-.934-.1a1.015,1.015,0,0,0-.3.589,10.761,10.761,0,0,0-.029,1.272c0,1.084.009,2.166,0,3.251a1.075,1.075,0,0,0,.556,1.053,6.068,6.068,0,0,1,.921.649.886.886,0,0,0,1.262.071c.036-.029.085-.041.122-.071a.744.744,0,0,1,.968-.023c.342.228.726.433,1.1.636a.7.7,0,0,1,.39.691q-.016.707,0,1.414a.638.638,0,0,1-.353.636q-.616.341-1.217.712a.7.7,0,0,1-.792-.007c-.382-.23-.768-.456-1.158-.671a.706.706,0,0,1-.388-.693c.008-.376-.013-.753,0-1.131a.966.966,0,0,0-.494-.939c-.423-.258-.8-.576-1.223-.833a1.016,1.016,0,0,1-.5-1c.023-1.506-.011-3.014.019-4.52a1.067,1.067,0,0,0-.607-1.072C-.173,3.246.034,3.577.008,2.036c0-.141.013-.283,0-.424A.807.807,0,0,1,.527.717,7.492,7.492,0,0,0,1.5.151a.748.748,0,0,1,.911.006c.353.228.725.437,1.1.636a.667.667,0,0,1,.392.682c-.014.306.02.614-.006.919a1.155,1.155,0,0,0,.569,1.119c1.716,1.237,3.4,2.517,5.126,3.741a1.449,1.449,0,0,1,.69,1.343c-.032,2.545.008,5.089-.027,7.629a2.143,2.143,0,0,0,.706,1.74c1.228,1.164,2.394,2.395,3.6,3.579a1.516,1.516,0,0,1,.507,1.175c-.014,4.029-.007,8.053-.008,12.079a4.6,4.6,0,0,1-.022.495c-.025.229-.173.315-.391.313a.323.323,0,0,1-.368-.332c-.009-.188-.011-.376-.011-.565Q14.27,31.841,14.272,28.98Z" transform="translate(1.392 14.824)" fill="#fafafa"/>
        <path id="Vector-14" data-name="Vector" d="M.008,30.782c0-1.578.01-3.156-.007-4.736a1.46,1.46,0,0,1,.418-1.072c1.2-1.324,2.368-2.679,3.567-4a1.538,1.538,0,0,0,.435-1.14c-.025-1.131-.017-2.262,0-3.393,0-.383-.054-.707-.449-.864a.884.884,0,0,1-.545-1.025,9.14,9.14,0,0,0,0-1.131.676.676,0,0,1,.4-.682,6.658,6.658,0,0,0,.79-.462,1.129,1.129,0,0,1,1.579-.066c.207.181.434.1.651-.029q1.867-1.136,3.739-2.262A.8.8,0,0,0,11,9.164q-.01-2.191,0-4.382a.752.752,0,0,0-.447-.734.483.483,0,0,0-.061-.035c-.917-.307-1.1-.975-1.036-1.872.083-1.25-.117-.975.932-1.571,1.341-.764.821-.758,2.174.01,1.031.586.9.3.886,1.584-.01,1.461.244,1.122-1.035,1.85a1.078,1.078,0,0,0-.628,1.065c.023,1.46-.01,2.921.018,4.382a1.064,1.064,0,0,1-.594,1.077c-1.082.615-2.128,1.294-3.208,1.913a1,1,0,0,0-.582,1.023c.024.424-.012.848.007,1.272a.761.761,0,0,1-.449.8c-.4.2-.764.464-1.163.662a.9.9,0,0,0-.555.946c.037,1.011,0,2.024.018,3.039a1.363,1.363,0,0,1-.38,1.014c-1.216,1.343-2.4,2.715-3.616,4.056a1.834,1.834,0,0,0-.5,1.336c.017,2.9.008,5.8.008,8.69,0,.212,0,.424-.015.636-.013.23-.15.327-.373.329s-.365-.086-.385-.317C0,35.748,0,35.559,0,35.37V30.775Z" transform="translate(27.759 14.168)" fill="#fafafa"/>
        <path id="Vector-15" data-name="Vector" d="M3.037,1.6c-.086.314-.075.727-.274.9a2.2,2.2,0,0,1-1.27.667A2.5,2.5,0,0,1,.162,2.464C-.011,2.318,0,1.9,0,1.616.006,1.3-.009.866.178.7A2.415,2.415,0,0,1,1.509,0,2.186,2.186,0,0,1,2.773.678C2.969.854,2.952,1.269,3.037,1.6Z" transform="translate(6.391 0.098)" fill="#fafafa"/>
        <path id="Vector-16" data-name="Vector" d="M1.919,1.077a1.09,1.09,0,0,1-1,1.035A1.067,1.067,0,0,1,0,1.065,1.046,1.046,0,0,1,.965,0,1.054,1.054,0,0,1,1.919,1.077Z" transform="translate(0 5.91)" fill="#fafafa"/>
        <path id="Vector-17" data-name="Vector" d="M0,1.06A1.129,1.129,0,0,1,.974,0a1.083,1.083,0,0,1,.933,1.1,1,1,0,0,1-.939,1A1.038,1.038,0,0,1,0,1.06Z" transform="translate(21.172 11.024)" fill="#fafafa"/>
        <path id="Vector-18" data-name="Vector" d="M1.88,1.028A1.033,1.033,0,0,1,.912,2.081,1.029,1.029,0,0,1,0,1.045,1.045,1.045,0,0,1,.967,0,1.038,1.038,0,0,1,1.88,1.028Z" transform="translate(30.046 1.238)" fill="#fafafa"/>
        <path id="Vector-19" data-name="Vector" d="M1.9,1.075a1.036,1.036,0,0,1-.976,1.04A1,1,0,0,1,0,1.1,1.109,1.109,0,0,1,.938,0,1.138,1.138,0,0,1,1.9,1.075Z" transform="translate(17.476 21.756)" fill="#fafafa"/>
        <path id="Vector-20" data-name="Vector" d="M0,1.007A1.167,1.167,0,0,1,.97,0a1.091,1.091,0,0,1,.958,1.09A1.077,1.077,0,0,1,.991,2.132,1.107,1.107,0,0,1,0,1.007Z" transform="translate(37.102 30.283)" fill="#fafafa"/>
        <path id="Vector-21" data-name="Vector" d="M0,1.012A1.064,1.064,0,0,1,.947,0,1.052,1.052,0,0,1,1.9,1.138a1.07,1.07,0,0,1-.979.97A1.028,1.028,0,0,1,0,1.012Z" transform="translate(5.517 32.475)" fill="#fafafa"/>
      </g>
    </g>
  </g>
</svg>
